{
  "source": "C:\\Users\\Peter\\Desktop\\stuff\\MIUN\\quantitative_research\\video_compression\\videos\\UVG\\YachtRide_1920x1080_120fps_420_8bit_YUV.y4m",
  "output": "C:\\Users\\Peter\\Desktop\\stuff\\MIUN\\quantitative_research\\video_compression\\compressed_videos\\UVG\\av1\\3\\YachtRide_1920x1080_120fps_420_8bit_YUV_av1.mkv",
  "codec": "av1",
  "ok": "[yuv4mpegpipe @ 000002093d595380] Stream #0: not enough frames to estimate rate; consider increasing probesize\nInput #0, yuv4mpegpipe, from 'C:\\Users\\Peter\\Desktop\\stuff\\MIUN\\quantitative_research\\video_compression\\videos\\UVG\\YachtRide_1920x1080_120fps_420_8bit_YUV.y4m':\n  Duration: 00:00:05.00, start: 0.000000, bitrate: 2985989 kb/s\n  Stream #0:0: Video: rawvideo (I420 / 0x30323449), yuv420p(progressive), 1920x1080, 120 fps, 120 tbr, 120 tbn\n[out#0/matroska @ 000002093d5990c0] Codec AVOption b:a (set bitrate (in bits/s)) has not been used for any stream. The most likely reason is either wrong type (e.g. a video option with no video streams) or that it is a private option of some decoder which was not actually used for any stream.\nStream mapping:\n  Stream #0:0 -> #0:0 (rawvideo (native) -> av1 (libsvtav1))\nPress [q] to stop, [?] for help\nSvt[info]: -------------------------------------------\nSvt[info]: SVT [version]:\tSVT-AV1 Encoder Lib v3.1.0-19-g6ecfe8ec\nSvt[info]: SVT [build]  :\tGCC 15.2.0\t 64 bit\nSvt[info]: LIB Build date: Aug 17 2025 11:37:13\nSvt[info]: -------------------------------------------\n[libsvtav1 @ 000002093d59c1c0] Specified chroma sample location center is unsupported on the AV1 bit stream level. Usage of a container that allows passing this information - such as Matroska - is recommended.\nSvt[info]: Level of Parallelism: 5\nSvt[info]: Number of PPCS 93\nSvt[info]: [asm level on system : up to avx2]\nSvt[info]: [asm level selected : up to avx2]\nSvt[info]: -------------------------------------------\nSvt[info]: SVT [config]: main profile\ttier (auto)\tlevel (auto)\nSvt[info]: SVT [config]: width / height / fps numerator / fps denominator \t\t: 1920 / 1080 / 120 / 1\nSvt[info]: SVT [config]: bit-depth / color format \t\t\t\t\t: 8 / YUV420\nSvt[info]: SVT [config]: preset / tune / pred struct \t\t\t\t\t: 4 / PSNR / random access\nSvt[info]: SVT [config]: gop size / mini-gop size / key-frame type \t\t\t: 641 / 16 / key frame\nSvt[info]: SVT [config]: BRC mode / target bitrate (kbps)\t\t\t\t: VBR / 3000 \nSvt[info]: SVT [config]: AQ mode / Variance Boost \t\t\t\t\t: 2 / 0\nSvt[info]: SVT [config]: sharpness / luminance-based QP bias \t\t\t\t: 0 / 0\nSvt[info]: SVT [config]: QP scale compress strength \t\t\t\t\t: 0\nSvt[info]: -------------------------------------------\nOutput #0, matroska, to 'C:\\Users\\Peter\\Desktop\\stuff\\MIUN\\quantitative_research\\video_compression\\compressed_videos\\UVG\\av1\\3\\YachtRide_1920x1080_120fps_420_8bit_YUV_av1.mkv':\n  Metadata:\n    encoder         : Lavf62.3.100\n  Stream #0:0: Video: av1 (AV01 / 0x31305641), yuv420p(tv, progressive), 1920x1080, q=2-31, 3000 kb/s, 120 fps, 1k tbn\n    Metadata:\n      encoder         : Lavc62.11.100 libsvtav1\n    Side data:\n      cpb: bitrate max/min/avg: 0/0/3000000 buffer size: 3000000 vbv_delay: N/A\nframe=    0 fps=0.0 q=0.0 size=       0KiB time=N/A bitrate=N/A speed=N/A elapsed=0:00:02.80    \nframe=    0 fps=0.0 q=0.0 size=       0KiB time=N/A bitrate=N/A speed=N/A elapsed=0:00:03.35    \nframe=    0 fps=0.0 q=0.0 size=       0KiB time=N/A bitrate=N/A speed=N/A elapsed=0:00:03.87    \nframe=    0 fps=0.0 q=0.0 size=       0KiB time=N/A bitrate=N/A speed=N/A elapsed=0:00:04.38    \nframe=    0 fps=0.0 q=0.0 size=       0KiB time=N/A bitrate=N/A speed=N/A elapsed=0:00:04.98    \nframe=    0 fps=0.0 q=0.0 size=       0KiB time=N/A bitrate=N/A speed=N/A elapsed=0:00:05.64    \nframe=    0 fps=0.0 q=0.0 size=       0KiB time=N/A bitrate=N/A speed=N/A elapsed=0:00:06.15    \nframe=    0 fps=0.0 q=0.0 size=       0KiB time=N/A bitrate=N/A speed=N/A elapsed=0:00:06.67    \nframe=    0 fps=0.0 q=0.0 size=       0KiB time=N/A bitrate=N/A speed=N/A elapsed=0:00:07.32    \nframe=    0 fps=0.0 q=0.0 size=       0KiB time=N/A bitrate=N/A speed=N/A elapsed=0:00:07.99    \nframe=    0 fps=0.0 q=0.0 size=       0KiB time=N/A bitrate=N/A speed=N/A elapsed=0:00:08.59    \nframe=    0 fps=0.0 q=0.0 size=       0KiB time=N/A bitrate=N/A speed=N/A elapsed=0:00:09.12    \nframe=    0 fps=0.0 q=0.0 size=       0KiB time=N/A bitrate=N/A speed=N/A elapsed=0:00:09.67    \nframe=    0 fps=0.0 q=0.0 size=       0KiB time=N/A bitrate=N/A speed=N/A elapsed=0:00:10.21    \nframe=    0 fps=0.0 q=0.0 size=       0KiB time=N/A bitrate=N/A speed=N/A elapsed=0:00:10.80    \nframe=    0 fps=0.0 q=0.0 size=       0KiB time=N/A bitrate=N/A speed=N/A elapsed=0:00:11.33    \nframe=    0 fps=0.0 q=0.0 size=       0KiB time=N/A bitrate=N/A speed=N/A elapsed=0:00:11.97    \nframe=    0 fps=0.0 q=0.0 size=       0KiB time=N/A bitrate=N/A speed=N/A elapsed=0:00:12.49    \nframe=    0 fps=0.0 q=0.0 size=       0KiB time=N/A bitrate=N/A speed=N/A elapsed=0:00:13.00    \nframe=    0 fps=0.0 q=0.0 size=       0KiB time=N/A bitrate=N/A speed=N/A elapsed=0:00:13.52    \nframe=    0 fps=0.0 q=0.0 size=       0KiB time=N/A bitrate=N/A speed=N/A elapsed=0:00:14.05    \nframe=    0 fps=0.0 q=0.0 size=       0KiB time=N/A bitrate=N/A speed=N/A elapsed=0:00:14.57    \nframe=    0 fps=0.0 q=0.0 size=       0KiB time=N/A bitrate=N/A speed=N/A elapsed=0:00:15.08    \nframe=    0 fps=0.0 q=0.0 size=       0KiB time=N/A bitrate=N/A speed=N/A elapsed=0:00:15.62    \nframe=    0 fps=0.0 q=0.0 size=       0KiB time=N/A bitrate=N/A speed=N/A elapsed=0:00:16.17    \nframe=    0 fps=0.0 q=0.0 size=       0KiB time=N/A bitrate=N/A speed=N/A elapsed=0:00:16.69    \nframe=    1 fps=0.1 q=29.0 size=       1KiB time=00:00:00.00 bitrate=N/A speed=   0x elapsed=0:00:17.28    \nframe=    1 fps=0.1 q=29.0 size=       1KiB time=00:00:00.00 bitrate=N/A speed=   0x elapsed=0:00:17.86    \nframe=    1 fps=0.1 q=29.0 size=       1KiB time=00:00:00.00 bitrate=N/A speed=   0x elapsed=0:00:18.43    \nframe=    1 fps=0.1 q=29.0 size=       1KiB time=00:00:00.00 bitrate=N/A speed=   0x elapsed=0:00:18.96    \nframe=    1 fps=0.1 q=29.0 size=       1KiB time=00:00:00.00 bitrate=N/A speed=   0x elapsed=0:00:19.56    \nframe=    1 fps=0.0 q=29.0 size=       1KiB time=00:00:00.00 bitrate=N/A speed=   0x elapsed=0:00:20.10    \nframe=    1 fps=0.0 q=29.0 size=       1KiB time=00:00:00.00 bitrate=N/A speed=   0x elapsed=0:00:20.64    \nframe=    1 fps=0.0 q=29.0 size=       1KiB time=00:00:00.00 bitrate=N/A speed=   0x elapsed=0:00:21.14    \nframe=    1 fps=0.0 q=29.0 size=       1KiB time=00:00:00.00 bitrate=N/A speed=   0x elapsed=0:00:21.70    \nframe=    1 fps=0.0 q=29.0 size=       1KiB time=00:00:00.00 bitrate=N/A speed=   0x elapsed=0:00:22.26    \nframe=    1 fps=0.0 q=29.0 size=       1KiB time=00:00:00.00 bitrate=N/A speed=   0x elapsed=0:00:22.84    \nframe=    1 fps=0.0 q=29.0 size=       1KiB time=00:00:00.00 bitrate=N/A speed=   0x elapsed=0:00:23.45    \nframe=    4 fps=0.2 q=54.0 size=       1KiB time=00:00:00.02 bitrate= 179.2kbits/s speed=0.00104x elapsed=0:00:24.01    \nframe=    4 fps=0.2 q=54.0 size=       1KiB time=00:00:00.02 bitrate= 179.2kbits/s speed=0.00102x elapsed=0:00:24.52    \nframe=    5 fps=0.2 q=50.0 size=       1KiB time=00:00:00.03 bitrate= 134.4kbits/s speed=0.00133x elapsed=0:00:25.05    \nframe=    6 fps=0.2 q=52.0 size=       1KiB time=00:00:00.04 bitrate= 107.5kbits/s speed=0.00163x elapsed=0:00:25.57    \nframe=    7 fps=0.3 q=51.0 size=       1KiB time=00:00:00.05 bitrate=  89.6kbits/s speed=0.00191x elapsed=0:00:26.11    \nframe=    7 fps=0.3 q=51.0 size=       1KiB time=00:00:00.05 bitrate=  89.6kbits/s speed=0.00187x elapsed=0:00:26.66    \nframe=    8 fps=0.3 q=50.0 size=       1KiB time=00:00:00.05 bitrate=  76.8kbits/s speed=0.00215x elapsed=0:00:27.18    \nframe=    8 fps=0.3 q=50.0 size=       1KiB time=00:00:00.05 bitrate=  76.8kbits/s speed=0.0021x elapsed=0:00:27.75    \nframe=    9 fps=0.3 q=47.0 size=       1KiB time=00:00:00.06 bitrate=  67.2kbits/s speed=0.00236x elapsed=0:00:28.30    \nframe=   12 fps=0.4 q=50.0 size=       1KiB time=00:00:00.09 bitrate=  48.9kbits/s speed=0.00318x elapsed=0:00:28.85    \nframe=   12 fps=0.4 q=50.0 size=       1KiB time=00:00:00.09 bitrate=  48.9kbits/s speed=0.00312x elapsed=0:00:29.38    \nframe=   14 fps=0.5 q=50.0 size=       1KiB time=00:00:00.10 bitrate=  41.4kbits/s speed=0.00362x elapsed=0:00:29.94    \nframe=   15 fps=0.5 q=51.0 size=       1KiB time=00:00:00.11 bitrate=  38.4kbits/s speed=0.00382x elapsed=0:00:30.52    \nframe=   16 fps=0.5 q=50.0 size=       1KiB time=00:00:00.12 bitrate=  35.8kbits/s speed=0.00402x elapsed=0:00:31.06    \nframe=   18 fps=0.6 q=50.0 size=       1KiB time=00:00:00.14 bitrate=  31.6kbits/s speed=0.00448x elapsed=0:00:31.60    \nframe=   19 fps=0.6 q=51.0 size=       1KiB time=00:00:00.15 bitrate=  29.9kbits/s speed=0.00467x elapsed=0:00:32.14    \nframe=   20 fps=0.6 q=50.0 size=       1KiB time=00:00:00.15 bitrate=  28.3kbits/s speed=0.00485x elapsed=0:00:32.66    \nframe=   22 fps=0.7 q=50.0 size=       1KiB time=00:00:00.17 bitrate=  25.6kbits/s speed=0.00527x elapsed=0:00:33.18    \nframe=   23 fps=0.7 q=51.0 size=       1KiB time=00:00:00.18 bitrate=  24.4kbits/s speed=0.00544x elapsed=0:00:33.69    \nframe=   23 fps=0.7 q=51.0 size=       1KiB time=00:00:00.18 bitrate=  24.4kbits/s speed=0.00536x elapsed=0:00:34.22    \nframe=   23 fps=0.7 q=51.0 size=       1KiB time=00:00:00.18 bitrate=  24.4kbits/s speed=0.00527x elapsed=0:00:34.78    \nframe=   24 fps=0.7 q=50.0 size=       1KiB time=00:00:00.19 bitrate=  23.4kbits/s speed=0.00542x elapsed=0:00:35.33    \nframe=   24 fps=0.7 q=50.0 size=       1KiB time=00:00:00.19 bitrate=  23.4kbits/s speed=0.00534x elapsed=0:00:35.86    \nframe=   24 fps=0.7 q=50.0 size=       1KiB time=00:00:00.19 bitrate=  23.4kbits/s speed=0.00527x elapsed=0:00:36.38    \nframe=   26 fps=0.7 q=51.0 size=       1KiB time=00:00:00.20 bitrate=  21.5kbits/s speed=0.00565x elapsed=0:00:36.90    \nframe=   28 fps=0.7 q=51.0 size=       1KiB time=00:00:00.22 bitrate=  19.9kbits/s speed=0.00601x elapsed=0:00:37.44    \nframe=   29 fps=0.8 q=48.0 size=       1KiB time=00:00:00.23 bitrate=  19.2kbits/s speed=0.00614x elapsed=0:00:37.99    \nframe=   31 fps=0.8 q=50.0 size=       1KiB time=00:00:00.25 bitrate=  17.9kbits/s speed=0.00648x elapsed=0:00:38.55    \nframe=   32 fps=0.8 q=52.0 size=       1KiB time=00:00:00.25 bitrate=  17.3kbits/s speed=0.00661x elapsed=0:00:39.07    \nframe=   32 fps=0.8 q=52.0 size=       1KiB time=00:00:00.25 bitrate=  17.3kbits/s speed=0.00652x elapsed=0:00:39.59    \nframe=   34 fps=0.8 q=53.0 size=       1KiB time=00:00:00.27 bitrate=  16.3kbits/s speed=0.00685x elapsed=0:00:40.12    \nframe=   35 fps=0.9 q=52.0 size=       1KiB time=00:00:00.28 bitrate=  15.8kbits/s speed=0.00696x elapsed=0:00:40.68    \nframe=   35 fps=0.8 q=52.0 size=       1KiB time=00:00:00.28 bitrate=  15.8kbits/s speed=0.00688x elapsed=0:00:41.19    \nframe=   36 fps=0.9 q=53.0 size=       1KiB time=00:00:00.29 bitrate=  15.4kbits/s speed=0.00699x elapsed=0:00:41.72    \nframe=   37 fps=0.9 q=50.0 size=       1KiB time=00:00:00.30 bitrate=  14.9kbits/s speed=0.0071x elapsed=0:00:42.25    \nframe=   38 fps=0.9 q=52.0 size=       1KiB time=00:00:00.30 bitrate=  14.5kbits/s speed=0.00721x elapsed=0:00:42.76    \nframe=   38 fps=0.9 q=52.0 size=       1KiB time=00:00:00.30 bitrate=  14.5kbits/s speed=0.0071x elapsed=0:00:43.42    \nframe=   39 fps=0.9 q=49.0 size=       1KiB time=00:00:00.31 bitrate=  14.1kbits/s speed=0.0072x elapsed=0:00:44.00    \nframe=   39 fps=0.9 q=49.0 size=       1KiB time=00:00:00.31 bitrate=  14.1kbits/s speed=0.00711x elapsed=0:00:44.52    \nframe=   40 fps=0.9 q=52.0 size=       1KiB time=00:00:00.32 bitrate=  13.8kbits/s speed=0.00721x elapsed=0:00:45.07    \nframe=   43 fps=0.9 q=51.0 size=       1KiB time=00:00:00.35 bitrate=  12.8kbits/s speed=0.00768x elapsed=0:00:45.59    \nframe=   43 fps=0.9 q=51.0 size=       1KiB time=00:00:00.35 bitrate=  12.8kbits/s speed=0.00758x elapsed=0:00:46.16    \nframe=   44 fps=0.9 q=53.0 size=       1KiB time=00:00:00.35 bitrate=  12.5kbits/s speed=0.00767x elapsed=0:00:46.74    \nframe=   45 fps=1.0 q=48.0 size=       1KiB time=00:00:00.36 bitrate=  12.2kbits/s speed=0.00776x elapsed=0:00:47.27    \nframe=   47 fps=1.0 q=51.0 size=       1KiB time=00:00:00.38 bitrate=  11.7kbits/s speed=0.00802x elapsed=0:00:47.79    \nframe=   48 fps=1.0 q=53.0 size=       1KiB time=00:00:00.39 bitrate=  11.4kbits/s speed=0.0081x elapsed=0:00:48.33    \nframe=   50 fps=1.0 q=54.0 size=       1KiB time=00:00:00.40 bitrate=  11.0kbits/s speed=0.00836x elapsed=0:00:48.85    \nframe=   51 fps=1.0 q=53.0 size=       1KiB time=00:00:00.41 bitrate=  10.8kbits/s speed=0.00844x elapsed=0:00:49.37    \nframe=   53 fps=1.1 q=51.0 size=       1KiB time=00:00:00.42 bitrate=  10.5kbits/s speed=0.00852x elapsed=0:00:49.88    \nframe=   54 fps=1.1 q=54.0 size=       1KiB time=00:00:00.44 bitrate=  10.1kbits/s speed=0.00876x elapsed=0:00:50.44    \nframe=   54 fps=1.1 q=54.0 size=       1KiB time=00:00:00.44 bitrate=  10.1kbits/s speed=0.00866x elapsed=0:00:50.97    \nframe=   54 fps=1.0 q=54.0 size=       1KiB time=00:00:00.44 bitrate=  10.1kbits/s speed=0.00858x elapsed=0:00:51.49    \nframe=   54 fps=1.0 q=54.0 size=       1KiB time=00:00:00.44 bitrate=  10.1kbits/s speed=0.00848x elapsed=0:00:52.05    \nframe=   55 fps=1.0 q=53.0 size=       1KiB time=00:00:00.45 bitrate=  10.0kbits/s speed=0.00856x elapsed=0:00:52.58    \nframe=   56 fps=1.1 q=54.0 size=       1KiB time=00:00:00.45 bitrate=  10.0kbits/s speed=0.00847x elapsed=0:00:53.10    \nframe=   57 fps=1.1 q=47.0 size=       1KiB time=00:00:00.46 bitrate=   9.6kbits/s speed=0.0087x elapsed=0:00:53.65    \nframe=   59 fps=1.1 q=51.0 size=       1KiB time=00:00:00.48 bitrate=   9.3kbits/s speed=0.00892x elapsed=0:00:54.20    \nframe=   59 fps=1.1 q=51.0 size=       1KiB time=00:00:00.48 bitrate=   9.3kbits/s speed=0.00883x elapsed=0:00:54.76    \nframe=   60 fps=1.1 q=53.0 size=       1KiB time=00:00:00.49 bitrate=   9.1kbits/s speed=0.00889x elapsed=0:00:55.31    \nframe=   61 fps=1.1 q=47.0 size=       1KiB time=00:00:00.50 bitrate=   9.0kbits/s speed=0.00894x elapsed=0:00:55.93    \nframe=   63 fps=1.1 q=51.0 size=       1KiB time=00:00:00.51 bitrate=   8.7kbits/s speed=0.00915x elapsed=0:00:56.49    \nframe=   63 fps=1.1 q=51.0 size=       1KiB time=00:00:00.51 bitrate=   8.7kbits/s speed=0.00906x elapsed=0:00:57.01    \nframe=   66 fps=1.1 q=53.0 size=       1KiB time=00:00:00.54 bitrate=   8.3kbits/s speed=0.00941x elapsed=0:00:57.55    \nframe=   67 fps=1.2 q=52.0 size=       1KiB time=00:00:00.55 bitrate=   8.1kbits/s speed=0.00947x elapsed=0:00:58.08    \nframe=   68 fps=1.2 q=46.0 size=       1KiB time=00:00:00.55 bitrate=   8.0kbits/s speed=0.00953x elapsed=0:00:58.60    \nframe=   69 fps=1.2 q=50.0 size=       1KiB time=00:00:00.56 bitrate=   7.9kbits/s speed=0.00958x elapsed=0:00:59.13    \nframe=   70 fps=1.2 q=51.0 size=       1KiB time=00:00:00.57 bitrate=   7.8kbits/s speed=0.00964x elapsed=0:00:59.67    \nframe=   70 fps=1.2 q=51.0 size=       1KiB time=00:00:00.57 bitrate=   7.8kbits/s speed=0.00955x elapsed=0:01:00.19    \nframe=   71 fps=1.2 q=48.0 size=       1KiB time=00:00:00.58 bitrate=   7.7kbits/s speed=0.00961x elapsed=0:01:00.71    \nframe=   72 fps=1.2 q=51.0 size=       1KiB time=00:00:00.59 bitrate=   7.6kbits/s speed=0.00966x elapsed=0:01:01.28    \nframe=   73 fps=1.2 q=46.0 size=       1KiB time=00:00:00.60 bitrate=   7.5kbits/s speed=0.00971x elapsed=0:01:01.79    \nframe=   75 fps=1.2 q=51.0 size=       1KiB time=00:00:00.61 bitrate=   7.3kbits/s speed=0.0099x elapsed=0:01:02.30    \nframe=   75 fps=1.2 q=51.0 size=       1KiB time=00:00:00.61 bitrate=   7.3kbits/s speed=0.00981x elapsed=0:01:02.84    \nframe=   77 fps=1.2 q=47.0 size=       1KiB time=00:00:00.63 bitrate=   7.1kbits/s speed=0.00999x elapsed=0:01:03.39    \nframe=   79 fps=1.2 q=51.0 size=       1KiB time=00:00:00.65 bitrate=   6.9kbits/s speed=0.0102x elapsed=0:01:03.93    \nframe=   80 fps=1.2 q=53.0 size=       1KiB time=00:00:00.65 bitrate=   6.8kbits/s speed=0.0102x elapsed=0:01:04.45    \nframe=   82 fps=1.3 q=54.0 size=       1KiB time=00:00:00.67 bitrate=   6.6kbits/s speed=0.0104x elapsed=0:01:04.96    \nframe=   83 fps=1.3 q=53.0 size=       1KiB time=00:00:00.68 bitrate=   6.6kbits/s speed=0.0104x elapsed=0:01:05.52    \nframe=   83 fps=1.3 q=53.0 size=       1KiB time=00:00:00.68 bitrate=   6.6kbits/s speed=0.0103x elapsed=0:01:06.08    \nframe=   83 fps=1.2 q=53.0 size=       1KiB time=00:00:00.68 bitrate=   6.6kbits/s speed=0.0103x elapsed=0:01:06.64    \nframe=   85 fps=1.3 q=51.0 size=       1KiB time=00:00:00.70 bitrate=   6.4kbits/s speed=0.0104x elapsed=0:01:07.16    \nframe=   86 fps=1.3 q=54.0 size=       1KiB time=00:00:00.70 bitrate=   6.3kbits/s speed=0.0105x elapsed=0:01:07.70    \nframe=   87 fps=1.3 q=49.0 size=       1KiB time=00:00:00.70 bitrate=   6.3kbits/s speed=0.0104x elapsed=0:01:08.24    \nframe=   87 fps=1.3 q=49.0 size=       1KiB time=00:00:00.71 bitrate=   6.3kbits/s speed=0.0104x elapsed=0:01:08.84    \nframe=   89 fps=1.3 q=47.0 size=       1KiB time=00:00:00.73 bitrate=   6.1kbits/s speed=0.0106x elapsed=0:01:09.36    \nframe=   90 fps=1.3 q=54.0 size=       1KiB time=00:00:00.74 bitrate=   6.0kbits/s speed=0.0106x elapsed=0:01:09.88    \nframe=   92 fps=1.3 q=54.0 size=       1KiB time=00:00:00.75 bitrate=   5.9kbits/s speed=0.0108x elapsed=0:01:10.41    \nframe=   94 fps=1.3 q=54.0 size=       1KiB time=00:00:00.76 bitrate=   5.8kbits/s speed=0.0108x elapsed=0:01:10.99    \nframe=   95 fps=1.3 q=51.0 size=       1KiB time=00:00:00.77 bitrate=   5.8kbits/s speed=0.0108x elapsed=0:01:11.54    \nframe=   96 fps=1.3 q=54.0 size=       1KiB time=00:00:00.79 bitrate=   5.7kbits/s speed=0.011x elapsed=0:01:12.10    \nframe=   98 fps=1.3 q=54.0 size=       1KiB time=00:00:00.80 bitrate=   5.5kbits/s speed=0.0111x elapsed=0:01:12.65    \nframe=   99 fps=1.4 q=53.0 size=       1KiB time=00:00:00.81 bitrate=   5.5kbits/s speed=0.0111x elapsed=0:01:13.25    \nframe=  102 fps=1.4 q=54.0 size=       1KiB time=00:00:00.84 bitrate=   5.3kbits/s speed=0.0114x elapsed=0:01:13.76    \nframe=  102 fps=1.4 q=54.0 size=       1KiB time=00:00:00.84 bitrate=   5.3kbits/s speed=0.0113x elapsed=0:01:14.36    \nframe=  103 fps=1.4 q=53.0 size=       1KiB time=00:00:00.85 bitrate=   5.3kbits/s speed=0.0113x elapsed=0:01:14.91    \nframe=  103 fps=1.4 q=53.0 size=       1KiB time=00:00:00.85 bitrate=   5.3kbits/s speed=0.0113x elapsed=0:01:15.47    \nframe=  103 fps=1.4 q=53.0 size=       1KiB time=00:00:00.85 bitrate=   5.3kbits/s speed=0.0112x elapsed=0:01:15.99    \nframe=  105 fps=1.4 q=47.0 size=       1KiB time=00:00:00.86 bitrate=   5.2kbits/s speed=0.0113x elapsed=0:01:16.51    \nframe=  107 fps=1.4 q=53.0 size=       1KiB time=00:00:00.88 bitrate=   5.1kbits/s speed=0.0115x elapsed=0:01:17.06    \nframe=  108 fps=1.4 q=54.0 size=       1KiB time=00:00:00.89 bitrate=   5.0kbits/s speed=0.0115x elapsed=0:01:17.60    \nframe=  109 fps=1.4 q=51.0 size=       1KiB time=00:00:00.89 bitrate=   5.0kbits/s speed=0.0114x elapsed=0:01:18.12    \nframe=  109 fps=1.4 q=51.0 size=       1KiB time=00:00:00.90 bitrate=   5.0kbits/s speed=0.0114x elapsed=0:01:18.67    \nframe=  111 fps=1.4 q=51.0 size=       1KiB time=00:00:00.90 bitrate=   4.9kbits/s speed=0.0115x elapsed=0:01:19.21    \nframe=  112 fps=1.4 q=55.0 size=       1KiB time=00:00:00.92 bitrate=   4.8kbits/s speed=0.0116x elapsed=0:01:19.79    \nframe=  114 fps=1.4 q=55.0 size=       1KiB time=00:00:00.94 bitrate=   4.8kbits/s speed=0.0117x elapsed=0:01:20.31    \nframe=  115 fps=1.4 q=53.0 size=       1KiB time=00:00:00.95 bitrate=   4.7kbits/s speed=0.0118x elapsed=0:01:20.81    \nframe=  117 fps=1.4 q=51.0 size=       1KiB time=00:00:00.96 bitrate=   4.6kbits/s speed=0.0119x elapsed=0:01:21.34    \nframe=  118 fps=1.4 q=55.0 size=       1KiB time=00:00:00.97 bitrate=   4.6kbits/s speed=0.0119x elapsed=0:01:21.87    \nframe=  118 fps=1.4 q=55.0 size=       1KiB time=00:00:00.97 bitrate=   4.6kbits/s speed=0.0118x elapsed=0:01:22.42    \nframe=  119 fps=1.4 q=50.0 size=       1KiB time=00:00:00.98 bitrate=   4.6kbits/s speed=0.0119x elapsed=0:01:22.95    \nframe=  119 fps=1.4 q=50.0 size=       1KiB time=00:00:00.98 bitrate=   4.6kbits/s speed=0.0118x elapsed=0:01:23.49    \nframe=  121 fps=1.4 q=47.0 size=       1KiB time=00:00:01.00 bitrate=   4.5kbits/s speed=0.0119x elapsed=0:01:24.04    \nframe=  123 fps=1.5 q=52.0 size=       1KiB time=00:00:01.01 bitrate=   4.4kbits/s speed=0.012x elapsed=0:01:24.58    \nframe=  125 fps=1.5 q=49.0 size=       1KiB time=00:00:01.03 bitrate=   4.3kbits/s speed=0.0121x elapsed=0:01:25.11    \nframe=  126 fps=1.5 q=55.0 size=       1KiB time=00:00:01.04 bitrate=   4.3kbits/s speed=0.0122x elapsed=0:01:25.66    \nframe=  127 fps=1.5 q=52.0 size=       1KiB time=00:00:01.05 bitrate=   4.3kbits/s speed=0.0122x elapsed=0:01:26.26    \nframe=  127 fps=1.5 q=52.0 size=       1KiB time=00:00:01.05 bitrate=   4.3kbits/s speed=0.0121x elapsed=0:01:26.87    \nframe=  130 fps=1.5 q=55.0 size=       1KiB time=00:00:01.07 bitrate=   4.2kbits/s speed=0.0123x elapsed=0:01:27.42    \nframe=  131 fps=1.5 q=54.0 size=       1KiB time=00:00:01.08 bitrate=   4.1kbits/s speed=0.0123x elapsed=0:01:27.96    \nframe=  131 fps=1.5 q=54.0 size=       1KiB time=00:00:01.08 bitrate=   4.1kbits/s speed=0.0122x elapsed=0:01:28.47    \nframe=  131 fps=1.5 q=54.0 size=       1KiB time=00:00:01.08 bitrate=   4.1kbits/s speed=0.0122x elapsed=0:01:29.04    \nframe=  133 fps=1.5 q=52.0 size=       1KiB time=00:00:01.10 bitrate=   4.1kbits/s speed=0.0123x elapsed=0:01:29.57    \nframe=  134 fps=1.5 q=56.0 size=       1KiB time=00:00:01.10 bitrate=   4.0kbits/s speed=0.0123x elapsed=0:01:30.16    \nframe=  134 fps=1.5 q=56.0 size=       1KiB time=00:00:01.10 bitrate=   4.0kbits/s speed=0.0122x elapsed=0:01:30.77    \nframe=  135 fps=1.5 q=51.0 size=       1KiB time=00:00:01.11 bitrate=   4.0kbits/s speed=0.0122x elapsed=0:01:31.31    \nframe=  136 fps=1.5 q=55.0 size=       1KiB time=00:00:01.12 bitrate=   4.0kbits/s speed=0.0122x elapsed=0:01:31.92    \nframe=  138 fps=1.5 q=55.0 size=       1KiB time=00:00:01.14 bitrate=   3.9kbits/s speed=0.0123x elapsed=0:01:32.48    \nframe=  139 fps=1.5 q=53.0 size=       1KiB time=00:00:01.15 bitrate=   3.9kbits/s speed=0.0124x elapsed=0:01:33.00    \nframe=  141 fps=1.5 q=50.0 size=       1KiB time=00:00:01.16 bitrate=   3.8kbits/s speed=0.0125x elapsed=0:01:33.52    \nframe=  142 fps=1.5 q=55.0 size=       1KiB time=00:00:01.17 bitrate=   3.8kbits/s speed=0.0125x elapsed=0:01:34.11    \nframe=  144 fps=1.5 q=55.0 size=       1KiB time=00:00:01.19 bitrate=   3.8kbits/s speed=0.0126x elapsed=0:01:34.63    \nframe=  147 fps=1.5 q=55.0 size=       1KiB time=00:00:01.21 bitrate=   3.7kbits/s speed=0.0128x elapsed=0:01:35.17    \nframe=  148 fps=1.5 q=55.0 size=       1KiB time=00:00:01.22 bitrate=   3.7kbits/s speed=0.0128x elapsed=0:01:35.71    \nframe=  150 fps=1.6 q=56.0 size=       1KiB time=00:00:01.24 bitrate=   3.6kbits/s speed=0.0129x elapsed=0:01:36.25    \nframe=  151 fps=1.6 q=51.0 size=       1KiB time=00:00:01.25 bitrate=   3.6kbits/s speed=0.0129x elapsed=0:01:36.78    \nframe=  151 fps=1.6 q=51.0 size=       1KiB time=00:00:01.25 bitrate=   3.6kbits/s speed=0.0128x elapsed=0:01:37.29    \nframe=  153 fps=1.6 q=49.0 size=       1KiB time=00:00:01.26 bitrate=   3.5kbits/s speed=0.0129x elapsed=0:01:37.82    \nframe=  155 fps=1.6 q=53.0 size=       1KiB time=00:00:01.28 bitrate=   3.5kbits/s speed=0.013x elapsed=0:01:38.34    \nframe=  155 fps=1.6 q=53.0 size=       1KiB time=00:00:01.28 bitrate=   3.5kbits/s speed=0.013x elapsed=0:01:38.93    \nframe=  157 fps=1.6 q=50.0 size=       1KiB time=00:00:01.30 bitrate=   3.4kbits/s speed=0.0131x elapsed=0:01:39.50    \nframe=  159 fps=1.6 q=53.0 size=       1KiB time=00:00:01.31 bitrate=   3.4kbits/s speed=0.0132x elapsed=0:01:40.05    \nframe=  161 fps=1.6 q=40.0 size=       1KiB time=00:00:01.32 bitrate=   3.4kbits/s speed=0.0131x elapsed=0:01:40.81    \nframe=  163 fps=1.6 q=55.0 size=       1KiB time=00:00:01.35 bitrate=   3.3kbits/s speed=0.0133x elapsed=0:01:41.63    \nframe=  165 fps=1.6 q=53.0 size=       1KiB time=00:00:01.36 bitrate=   3.3kbits/s speed=0.0134x elapsed=0:01:42.29    \nframe=  166 fps=1.6 q=56.0 size=       1KiB time=00:00:01.37 bitrate=   3.3kbits/s speed=0.0133x elapsed=0:01:43.04    \nframe=  167 fps=1.6 q=55.0 size=       1KiB time=00:00:01.38 bitrate=   3.2kbits/s speed=0.0133x elapsed=0:01:43.83    \nframe=  169 fps=1.6 q=49.0 size=       1KiB time=00:00:01.40 bitrate=   3.2kbits/s speed=0.0134x elapsed=0:01:44.58    \nframe=  174 fps=1.7 q=56.0 size=       1KiB time=00:00:01.44 bitrate=   3.1kbits/s speed=0.0137x elapsed=0:01:45.25    \nframe=  175 fps=1.7 q=54.0 size=       1KiB time=00:00:01.45 bitrate=   3.1kbits/s speed=0.0137x elapsed=0:01:45.97    \nframe=  179 fps=1.7 q=56.0 size=       1KiB time=00:00:01.48 bitrate=   3.0kbits/s speed=0.0139x elapsed=0:01:46.59    \nframe=  180 fps=1.7 q=57.0 size=       1KiB time=00:00:01.49 bitrate=   3.0kbits/s speed=0.0139x elapsed=0:01:47.25    \nframe=  182 fps=1.7 q=55.0 size=       1KiB time=00:00:01.50 bitrate=   3.0kbits/s speed=0.014x elapsed=0:01:47.88    \nframe=  183 fps=1.7 q=52.0 size=       1KiB time=00:00:01.51 bitrate=   3.0kbits/s speed=0.014x elapsed=0:01:48.58    \nframe=  186 fps=1.7 q=56.0 size=       1KiB time=00:00:01.54 bitrate=   2.9kbits/s speed=0.0141x elapsed=0:01:49.45    \nframe=  188 fps=1.7 q=56.0 size=       1KiB time=00:00:01.55 bitrate=   2.9kbits/s speed=0.0141x elapsed=0:01:50.12    \nframe=  190 fps=1.7 q=56.0 size=       1KiB time=00:00:01.57 bitrate=   2.8kbits/s speed=0.0142x elapsed=0:01:50.83    \nframe=  191 fps=1.7 q=54.0 size=       1KiB time=00:00:01.58 bitrate=   2.8kbits/s speed=0.0142x elapsed=0:01:51.51    \nframe=  197 fps=1.8 q=54.0 size=       1KiB time=00:00:01.63 bitrate=   2.7kbits/s speed=0.0146x elapsed=0:01:52.11    \nframe=  199 fps=1.8 q=56.0 size=       1KiB time=00:00:01.64 bitrate=   2.7kbits/s speed=0.0146x elapsed=0:01:52.69    \nframe=  201 fps=1.8 q=50.0 size=       1KiB time=00:00:01.65 bitrate=   2.7kbits/s speed=0.0146x elapsed=0:01:53.34    \nframe=  204 fps=1.8 q=56.0 size=       1KiB time=00:00:01.68 bitrate=   2.7kbits/s speed=0.0148x elapsed=0:01:54.03    \nframe=  206 fps=1.8 q=56.0 size=       1KiB time=00:00:01.70 bitrate=   2.6kbits/s speed=0.0149x elapsed=0:01:54.70    \nframe=  208 fps=1.8 q=56.0 size=       1KiB time=00:00:01.71 bitrate=   2.6kbits/s speed=0.0149x elapsed=0:01:55.41    \nframe=  211 fps=1.8 q=56.0 size=       1KiB time=00:00:01.75 bitrate=   2.6kbits/s speed=0.0151x elapsed=0:01:55.97    \nframe=  214 fps=1.8 q=57.0 size=       1KiB time=00:00:01.77 bitrate=   2.5kbits/s speed=0.0152x elapsed=0:01:56.61    \nframe=  215 fps=1.8 q=56.0 size=       1KiB time=00:00:01.78 bitrate=   2.5kbits/s speed=0.0152x elapsed=0:01:57.27    \nframe=  216 fps=1.8 q=57.0 size=       1KiB time=00:00:01.79 bitrate=   2.5kbits/s speed=0.0152x elapsed=0:01:57.89    \nframe=  218 fps=1.8 q=56.0 size=       1KiB time=00:00:01.80 bitrate=   2.5kbits/s speed=0.0153x elapsed=0:01:58.39    \nframe=  221 fps=1.9 q=52.0 size=       1KiB time=00:00:01.83 bitrate=   2.4kbits/s speed=0.0154x elapsed=0:01:58.92    \nframe=  222 fps=1.9 q=56.0 size=       1KiB time=00:00:01.84 bitrate=   2.4kbits/s speed=0.0154x elapsed=0:01:59.43    \nframe=  224 fps=1.9 q=56.0 size=       1KiB time=00:00:01.85 bitrate=   2.4kbits/s speed=0.0155x elapsed=0:01:59.95    \nframe=  226 fps=1.9 q=57.0 size=       1KiB time=00:00:01.87 bitrate=   2.4kbits/s speed=0.0156x elapsed=0:02:00.46    \nframe=  228 fps=1.9 q=57.0 size=       1KiB time=00:00:01.89 bitrate=   2.4kbits/s speed=0.0156x elapsed=0:02:00.98    \nframe=  230 fps=1.9 q=57.0 size=       1KiB time=00:00:01.90 bitrate=   2.3kbits/s speed=0.0157x elapsed=0:02:01.49    \nframe=  230 fps=1.9 q=57.0 size=       1KiB time=00:00:01.90 bitrate=   2.3kbits/s speed=0.0156x elapsed=0:02:02.00    \nframe=  231 fps=1.9 q=56.0 size=       1KiB time=00:00:01.91 bitrate=   2.3kbits/s speed=0.0156x elapsed=0:02:02.52    \nframe=  232 fps=1.9 q=57.0 size=       1KiB time=00:00:01.92 bitrate=   2.3kbits/s speed=0.0156x elapsed=0:02:03.05    \nframe=  236 fps=1.9 q=56.0 size=       1KiB time=00:00:01.95 bitrate=   2.3kbits/s speed=0.0158x elapsed=0:02:03.55    \nframe=  237 fps=1.9 q=51.0 size=       1KiB time=00:00:01.96 bitrate=   2.3kbits/s speed=0.0159x elapsed=0:02:04.07    \nframe=  239 fps=1.9 q=54.0 size=       1KiB time=00:00:01.98 bitrate=   2.3kbits/s speed=0.0159x elapsed=0:02:04.58    \nframe=  242 fps=1.9 q=57.0 size=       1KiB time=00:00:02.00 bitrate=   2.2kbits/s speed=0.0161x elapsed=0:02:05.10    \nframe=  246 fps=2.0 q=57.0 size=       1KiB time=00:00:02.04 bitrate=   2.2kbits/s speed=0.0163x elapsed=0:02:05.61    \nframe=  247 fps=2.0 q=56.0 size=       1KiB time=00:00:02.05 bitrate=   2.2kbits/s speed=0.0163x elapsed=0:02:06.14    \nframe=  249 fps=2.0 q=51.0 size=       1KiB time=00:00:02.06 bitrate=   2.2kbits/s speed=0.0163x elapsed=0:02:06.66    \nframe=  253 fps=2.0 q=52.0 size=       1KiB time=00:00:02.10 bitrate=   2.1kbits/s speed=0.0165x elapsed=0:02:07.16    \nframe=  254 fps=2.0 q=56.0 size=       1KiB time=00:00:02.10 bitrate=   2.1kbits/s speed=0.0165x elapsed=0:02:07.68    \nframe=  255 fps=2.0 q=55.0 size=       1KiB time=00:00:02.11 bitrate=   2.1kbits/s speed=0.0165x elapsed=0:02:08.20    \nframe=  259 fps=2.0 q=56.0 size=       1KiB time=00:00:02.15 bitrate=   2.1kbits/s speed=0.0167x elapsed=0:02:08.72    \nframe=  261 fps=2.0 q=54.0 size=       1KiB time=00:00:02.16 bitrate=   2.1kbits/s speed=0.0168x elapsed=0:02:09.23    \nframe=  262 fps=2.0 q=55.0 size=       1KiB time=00:00:02.17 bitrate=   2.1kbits/s speed=0.0168x elapsed=0:02:09.75    \nframe=  263 fps=2.0 q=53.0 size=       1KiB time=00:00:02.18 bitrate=   2.1kbits/s speed=0.0168x elapsed=0:02:10.26    \nframe=  264 fps=2.0 q=55.0 size=       1KiB time=00:00:02.19 bitrate=   2.0kbits/s speed=0.0168x elapsed=0:02:10.78    \nframe=  268 fps=2.0 q=56.0 size=       1KiB time=00:00:02.22 bitrate=   2.0kbits/s speed=0.0169x elapsed=0:02:11.29    \nframe=  271 fps=2.1 q=55.0 size=       1KiB time=00:00:02.25 bitrate=   2.0kbits/s speed=0.0171x elapsed=0:02:11.81    \nframe=  275 fps=2.1 q=56.0 size=       1KiB time=00:00:02.28 bitrate=   2.0kbits/s speed=0.0173x elapsed=0:02:12.32    \nframe=  278 fps=2.1 q=57.0 size=       1KiB time=00:00:02.30 bitrate=   1.9kbits/s speed=0.0174x elapsed=0:02:12.84    \nframe=  279 fps=2.1 q=56.0 size=       1KiB time=00:00:02.31 bitrate=   1.9kbits/s speed=0.0174x elapsed=0:02:13.36    \nframe=  281 fps=2.1 q=51.0 size=       1KiB time=00:00:02.33 bitrate=   1.9kbits/s speed=0.0174x elapsed=0:02:13.87    \nframe=  283 fps=2.1 q=55.0 size=       1KiB time=00:00:02.35 bitrate=   1.9kbits/s speed=0.0175x elapsed=0:02:14.39    \nframe=  285 fps=2.1 q=52.0 size=       1KiB time=00:00:02.36 bitrate=   1.9kbits/s speed=0.0175x elapsed=0:02:14.90    \nframe=  286 fps=2.1 q=56.0 size=       1KiB time=00:00:02.37 bitrate=   1.9kbits/s speed=0.0175x elapsed=0:02:15.41    \nframe=  291 fps=2.1 q=56.0 size=       1KiB time=00:00:02.41 bitrate=   1.9kbits/s speed=0.0178x elapsed=0:02:15.93    \nframe=  294 fps=2.2 q=55.0 size=       1KiB time=00:00:02.44 bitrate=   1.8kbits/s speed=0.0179x elapsed=0:02:16.44    \nframe=  294 fps=2.1 q=55.0 size=       1KiB time=00:00:02.44 bitrate=   1.8kbits/s speed=0.0178x elapsed=0:02:16.97    \nframe=  295 fps=2.1 q=53.0 size=       1KiB time=00:00:02.45 bitrate=   1.8kbits/s speed=0.0178x elapsed=0:02:17.48    \nframe=  298 fps=2.2 q=56.0 size=       1KiB time=00:00:02.47 bitrate=   1.8kbits/s speed=0.0179x elapsed=0:02:18.00    \nframe=  300 fps=2.2 q=56.0 size=       1KiB time=00:00:02.49 bitrate=   1.8kbits/s speed=0.018x elapsed=0:02:18.52    \nframe=  303 fps=2.2 q=55.0 size=       1KiB time=00:00:02.51 bitrate=   1.8kbits/s speed=0.0181x elapsed=0:02:19.03    \nframe=  306 fps=2.2 q=57.0 size=       1KiB time=00:00:02.54 bitrate=   1.8kbits/s speed=0.0182x elapsed=0:02:19.54    \nframe=  308 fps=2.2 q=57.0 size=       1KiB time=00:00:02.55 bitrate=   1.8kbits/s speed=0.0183x elapsed=0:02:20.06    \nframe=  310 fps=2.2 q=55.0 size=       1KiB time=00:00:02.57 bitrate=   1.7kbits/s speed=0.0183x elapsed=0:02:20.57    \nframe=  312 fps=2.2 q=55.0 size=       1KiB time=00:00:02.59 bitrate=   1.7kbits/s speed=0.0184x elapsed=0:02:21.09    \nframe=  315 fps=2.2 q=55.0 size=       1KiB time=00:00:02.61 bitrate=   1.7kbits/s speed=0.0185x elapsed=0:02:21.60    \nframe=  317 fps=2.2 q=52.0 size=       1KiB time=00:00:02.63 bitrate=   1.7kbits/s speed=0.0185x elapsed=0:02:22.12    \nframe=  319 fps=2.2 q=55.0 size=       1KiB time=00:00:02.65 bitrate=   1.7kbits/s speed=0.0186x elapsed=0:02:22.63    \nframe=  322 fps=2.2 q=57.0 size=       1KiB time=00:00:02.67 bitrate=   1.7kbits/s speed=0.0187x elapsed=0:02:23.14    \nframe=  324 fps=2.3 q=57.0 size=       1KiB time=00:00:02.69 bitrate=   1.7kbits/s speed=0.0187x elapsed=0:02:23.66    \nframe=  326 fps=2.3 q=55.0 size=       1KiB time=00:00:02.70 bitrate=   1.7kbits/s speed=0.0188x elapsed=0:02:24.18    \nframe=  327 fps=2.3 q=53.0 size=       1KiB time=00:00:02.71 bitrate=   1.6kbits/s speed=0.0188x elapsed=0:02:24.70    \nframe=  329 fps=2.3 q=51.0 size=       1KiB time=00:00:02.73 bitrate=   1.6kbits/s speed=0.0188x elapsed=0:02:25.22    \nframe=  332 fps=2.3 q=56.0 size=       1KiB time=00:00:02.75 bitrate=   1.6kbits/s speed=0.0189x elapsed=0:02:25.74    \nframe=  335 fps=2.3 q=55.0 size=       1KiB time=00:00:02.78 bitrate=   1.6kbits/s speed=0.019x elapsed=0:02:26.24    \nframe=  341 fps=2.3 q=55.0 size=       1KiB time=00:00:02.83 bitrate=   1.6kbits/s speed=0.0193x elapsed=0:02:26.76    \nframe=  342 fps=2.3 q=58.0 size=       1KiB time=00:00:02.84 bitrate=   1.6kbits/s speed=0.0193x elapsed=0:02:27.27    \nframe=  343 fps=2.3 q=54.0 size=       1KiB time=00:00:02.85 bitrate=   1.6kbits/s speed=0.0193x elapsed=0:02:27.79    \nframe=  347 fps=2.3 q=56.0 size=       1KiB time=00:00:02.88 bitrate=   1.6kbits/s speed=0.0194x elapsed=0:02:28.34    \nframe=  350 fps=2.4 q=57.0 size=       1KiB time=00:00:02.90 bitrate=   1.5kbits/s speed=0.0195x elapsed=0:02:28.86    \nframe=  351 fps=2.3 q=56.0 size=       1KiB time=00:00:02.91 bitrate=   1.5kbits/s speed=0.0195x elapsed=0:02:29.44    \nframe=  355 fps=2.4 q=57.0 size=       1KiB time=00:00:02.95 bitrate=   1.5kbits/s speed=0.0197x elapsed=0:02:29.96    \nframe=  357 fps=2.4 q=55.0 size=       1KiB time=00:00:02.96 bitrate=   1.5kbits/s speed=0.0197x elapsed=0:02:30.51    \nframe=  359 fps=2.4 q=54.0 size=       1KiB time=00:00:02.98 bitrate=   1.5kbits/s speed=0.0198x elapsed=0:02:31.02    \nframe=  362 fps=2.4 q=57.0 size=       1KiB time=00:00:03.00 bitrate=   1.5kbits/s speed=0.0198x elapsed=0:02:31.57    \nframe=  365 fps=2.4 q=53.0 size=       1KiB time=00:00:03.02 bitrate=   1.5kbits/s speed=0.0199x elapsed=0:02:32.08    \nframe=  367 fps=2.4 q=56.0 size=       1KiB time=00:00:03.05 bitrate=   1.5kbits/s speed=0.02x elapsed=0:02:32.66    \nframe=  371 fps=2.4 q=57.0 size=       1KiB time=00:00:03.08 bitrate=   1.5kbits/s speed=0.0201x elapsed=0:02:33.18    \nframe=  373 fps=2.4 q=55.0 size=       1KiB time=00:00:03.10 bitrate=   1.4kbits/s speed=0.0202x elapsed=0:02:33.69    \nframe=  375 fps=2.4 q=54.0 size=       1KiB time=00:00:03.11 bitrate=   1.4kbits/s speed=0.0202x elapsed=0:02:34.24    \nframe=  376 fps=2.4 q=56.0 size=       1KiB time=00:00:03.12 bitrate=   1.4kbits/s speed=0.0202x elapsed=0:02:34.81    \nframe=  381 fps=2.5 q=53.0 size=       1KiB time=00:00:03.16 bitrate=   1.4kbits/s speed=0.0204x elapsed=0:02:35.32    \nframe=  383 fps=2.5 q=56.0 size=       1KiB time=00:00:03.18 bitrate=   1.4kbits/s speed=0.0204x elapsed=0:02:35.88    \nframe=  388 fps=2.5 q=58.0 size=       1KiB time=00:00:03.22 bitrate=   1.4kbits/s speed=0.0206x elapsed=0:02:36.41    \nframe=  390 fps=2.5 q=58.0 size=       1KiB time=00:00:03.24 bitrate=   1.4kbits/s speed=0.0207x elapsed=0:02:36.94    \nframe=  393 fps=2.5 q=52.0 size=       1KiB time=00:00:03.26 bitrate=   1.4kbits/s speed=0.0207x elapsed=0:02:37.44    \nframe=  398 fps=2.5 q=57.0 size=       1KiB time=00:00:03.30 bitrate=   1.4kbits/s speed=0.0209x elapsed=0:02:37.97    \nframe=  402 fps=2.5 q=58.0 size=       1KiB time=00:00:03.34 bitrate=   1.3kbits/s speed=0.0211x elapsed=0:02:38.50    \nframe=  407 fps=2.6 q=57.0 size=       1KiB time=00:00:03.38 bitrate=   1.3kbits/s speed=0.0213x elapsed=0:02:39.01    \nframe=  410 fps=2.6 q=59.0 size=       1KiB time=00:00:03.40 bitrate=   1.3kbits/s speed=0.0214x elapsed=0:02:39.52    \nframe=  414 fps=2.6 q=57.0 size=       1KiB time=00:00:03.43 bitrate=   1.3kbits/s speed=0.0215x elapsed=0:02:40.04    \nframe=  415 fps=2.6 q=56.0 size=       1KiB time=00:00:03.45 bitrate=   1.3kbits/s speed=0.0215x elapsed=0:02:40.56    \nframe=  420 fps=2.6 q=58.0 size=       1KiB time=00:00:03.48 bitrate=   1.3kbits/s speed=0.0216x elapsed=0:02:41.09    \nframe=  423 fps=2.6 q=57.0 size=       1KiB time=00:00:03.51 bitrate=   1.3kbits/s speed=0.0218x elapsed=0:02:41.67    \nframe=  426 fps=2.6 q=57.0 size=       1KiB time=00:00:03.54 bitrate=   1.3kbits/s speed=0.0218x elapsed=0:02:42.20    \nframe=  431 fps=2.6 q=56.0 size=       1KiB time=00:00:03.58 bitrate=   1.3kbits/s speed=0.022x elapsed=0:02:42.71    \nframe=  438 fps=2.7 q=58.0 size=       1KiB time=00:00:03.64 bitrate=   1.2kbits/s speed=0.0223x elapsed=0:02:43.23    \nframe=  440 fps=2.7 q=58.0 size=       1KiB time=00:00:03.65 bitrate=   1.2kbits/s speed=0.0223x elapsed=0:02:43.75    \nframe=  444 fps=2.7 q=57.0 size=       1KiB time=00:00:03.69 bitrate=   1.2kbits/s speed=0.0225x elapsed=0:02:44.27    \nframe=  448 fps=2.7 q=57.0 size=       1KiB time=00:00:03.72 bitrate=   1.2kbits/s speed=0.0226x elapsed=0:02:44.82    \nframe=  453 fps=2.7 q=55.0 size=       1KiB time=00:00:03.76 bitrate=   1.2kbits/s speed=0.0228x elapsed=0:02:45.33    \nframe=  455 fps=2.7 q=57.0 size=       1KiB time=00:00:03.78 bitrate=   1.2kbits/s speed=0.0228x elapsed=0:02:45.86    \nframe=  458 fps=2.8 q=59.0 size=       1KiB time=00:00:03.80 bitrate=   1.2kbits/s speed=0.0229x elapsed=0:02:46.40    \nframe=  462 fps=2.8 q=57.0 size=       1KiB time=00:00:03.84 bitrate=   1.2kbits/s speed=0.023x elapsed=0:02:46.98    \nframe=  466 fps=2.8 q=58.0 size=       1KiB time=00:00:03.87 bitrate=   1.2kbits/s speed=0.0231x elapsed=0:02:47.58    \nframe=  470 fps=2.8 q=58.0 size=       1KiB time=00:00:03.90 bitrate=   1.1kbits/s speed=0.0232x elapsed=0:02:48.10    \nframe=  474 fps=2.8 q=57.0 size=       1KiB time=00:00:03.94 bitrate=   1.1kbits/s speed=0.0234x elapsed=0:02:48.62    \nframe=  479 fps=2.8 q=56.0 size=       1KiB time=00:00:03.98 bitrate=   1.1kbits/s speed=0.0236x elapsed=0:02:49.13    \nframe=  484 fps=2.9 q=58.0 size=       1KiB time=00:00:04.02 bitrate=   1.1kbits/s speed=0.0237x elapsed=0:02:49.66    \nframe=  486 fps=2.9 q=58.0 size=       1KiB time=00:00:04.04 bitrate=   1.1kbits/s speed=0.0237x elapsed=0:02:50.18    \nframe=  488 fps=2.9 q=58.0 size=       1KiB time=00:00:04.05 bitrate=   1.1kbits/s speed=0.0238x elapsed=0:02:50.70    \nframe=  492 fps=2.9 q=57.0 size=       1KiB time=00:00:04.09 bitrate=   1.1kbits/s speed=0.0239x elapsed=0:02:51.25    \nframe=  496 fps=2.9 q=57.0 size=       1KiB time=00:00:04.12 bitrate=   1.1kbits/s speed=0.024x elapsed=0:02:51.77    \nframe=  502 fps=2.9 q=58.0 size=       1KiB time=00:00:04.17 bitrate=   1.1kbits/s speed=0.0242x elapsed=0:02:52.28    \nframe=  509 fps=2.9 q=53.0 size=       1KiB time=00:00:04.23 bitrate=   1.1kbits/s speed=0.0245x elapsed=0:02:52.80    \nframe=  513 fps=3.0 q=44.0 size=       1KiB time=00:00:04.26 bitrate=   1.0kbits/s speed=0.0246x elapsed=0:02:53.33    \nframe=  517 fps=3.0 q=55.0 size=       1KiB time=00:00:04.30 bitrate=   1.0kbits/s speed=0.0247x elapsed=0:02:53.88    \nframe=  521 fps=3.0 q=52.0 size=       1KiB time=00:00:04.33 bitrate=   1.0kbits/s speed=0.0248x elapsed=0:02:54.40    \nframe=  527 fps=3.0 q=56.0 size=       1KiB time=00:00:04.38 bitrate=   1.0kbits/s speed=0.0251x elapsed=0:02:54.93    \nframe=  529 fps=3.0 q=44.0 size=       1KiB time=00:00:04.40 bitrate=   1.0kbits/s speed=0.0251x elapsed=0:02:55.46    \nframe=  537 fps=3.1 q=52.0 size=       1KiB time=00:00:04.46 bitrate=   1.0kbits/s speed=0.0254x elapsed=0:02:55.98    \nframe=  537 fps=3.0 q=52.0 size=       1KiB time=00:00:04.46 bitrate=   1.0kbits/s speed=0.0253x elapsed=0:02:56.50    \nframe=  541 fps=3.1 q=53.0 size=       1KiB time=00:00:04.50 bitrate=   1.0kbits/s speed=0.0254x elapsed=0:02:57.02    \nframe=  547 fps=3.1 q=57.0 size=       1KiB time=00:00:04.55 bitrate=   1.0kbits/s speed=0.0256x elapsed=0:02:57.55    \nframe=  553 fps=3.1 q=52.0 size=       1KiB time=00:00:04.60 bitrate=   1.0kbits/s speed=0.0258x elapsed=0:02:58.07    \nframe=  561 fps=3.1 q=44.0 size=       1KiB time=00:00:04.66 bitrate=   1.0kbits/s speed=0.0261x elapsed=0:02:58.58    \nframe=  565 fps=3.2 q=55.0 size=       1KiB time=00:00:04.70 bitrate=   1.0kbits/s speed=0.0262x elapsed=0:02:59.10    \nframe=  569 fps=3.2 q=52.0 size=       1KiB time=00:00:04.73 bitrate=   0.9kbits/s speed=0.0264x elapsed=0:02:59.62    \nframe=  569 fps=3.2 q=52.0 size=       1KiB time=00:00:04.73 bitrate=   0.9kbits/s speed=0.0263x elapsed=0:03:00.24    \nframe=  573 fps=3.2 q=51.0 size=       1KiB time=00:00:04.76 bitrate=   0.9kbits/s speed=0.0264x elapsed=0:03:00.81    \nframe=  577 fps=3.2 q=43.0 size=       1KiB time=00:00:04.80 bitrate=   0.9kbits/s speed=0.0265x elapsed=0:03:01.42    \nframe=  585 fps=3.2 q=50.0 size=       1KiB time=00:00:04.86 bitrate=   0.9kbits/s speed=0.0268x elapsed=0:03:01.93    \n[out#0/matroska @ 000002093d5990c0] video:1895KiB audio:0KiB subtitle:0KiB other streams:0KiB global headers:0KiB muxing overhead: 0.172361%\nframe=  600 fps=3.3 q=57.0 Lsize=    1898KiB time=00:00:04.99 bitrate=3114.7kbits/s speed=0.0274x elapsed=0:03:02.23    \n",
  "seconds": 183.66565251350403,
  "probe_out": {}
}